<?xml version="1.0" standalone="no"?>
<!DOCTYPE svg PUBLIC "-//W3C//DTD SVG 1.1//EN" "http://www.w3.org/Graphics/SVG/1.1/DTD/svg11.dtd" >
<!--
2013-9-30: Created.
-->
<svg>
<metadata>
Created by iconfont
</metadata>
<defs>

<font id="iconfont" horiz-adv-x="1024" >
  <font-face
    font-family="iconfont"
    font-weight="500"
    font-stretch="normal"
    units-per-em="1024"
    ascent="896"
    descent="-128"
  />
    <missing-glyph />
    
    <glyph glyph-name="icon-test" unicode="&#58937;" d="M704 320c-19.2 0-32-12.8-32-32s12.8-32 32-32 32 12.8 32 32-12.8 32-32 32M864 576H192V704h576V768H160c-19.2 0-32-12.8-32-32v-704c0-19.2 12.8-32 32-32h704c19.2 0 32 12.8 32 32V544c0 19.2-12.8 32-32 32z m-32-352h-256v128h256v-128z m0 192h-288c-19.2 0-32-12.8-32-32v-192c0-19.2 12.8-32 32-32h288v-96H192V512h640v-96z"  horiz-adv-x="1024" />

    
    <glyph glyph-name="icon-test1" unicode="&#58957;" d="M384 704c52.928 0 96-43.072 96-96s-43.072-96-96-96-96 43.072-96 96 43.072 96 96 96m0-256c88.224 0 160 71.776 160 160s-71.776 160-160 160-160-71.776-160-160 71.776-160 160-160M704 544a64 64 0 1 0-0.032-128.032A64 64 0 0 0 704 544m0-192c70.592 0 128 57.408 128 128s-57.408 128-128 128-128-57.408-128-128 57.408-128 128-128M772.576 287.904h-137.12c-2.944 0-5.76-0.416-8.64-0.64A160.128 160.128 0 0 1 480 384H288c-88.192 0-160-71.776-160-160v-224h64v224c0 52.928 43.072 96 96 96h192c52.96 0 96-43.072 96-96v-224h64v223.904h132.576c32.768 0 59.424-26.656 59.424-59.392V0h64v164.512a123.52 123.52 0 0 1-123.424 123.392"  horiz-adv-x="1024" />

    
    <glyph glyph-name="icon-test2" unicode="&#58958;" d="M320 704c35.296 0 64-28.704 64-64s-28.704-64-64-64-64 28.704-64 64 28.704 64 64 64m0-192c70.592 0 128 57.408 128 128s-57.408 128-128 128-128-57.408-128-128 57.408-128 128-128M736 448h-96a31.904 31.904 0 0 1-22.624-9.376L512 333.248l-105.376 105.376A31.904 31.904 0 0 1 384 448H288c-88.224 0-160-71.776-160-160v-192h96v-96h64v160H192v128c0 52.928 43.072 96 96 96h82.752L512 242.752 653.248 384H736c52.928 0 96-43.072 96-96v-128h-96v-160h64v96h96v192c0 88.224-71.776 160-160 160M704 704c35.296 0 64-28.704 64-64s-28.704-64-64-64-64 28.704-64 64 28.704 64 64 64m0-192c70.592 0 128 57.408 128 128s-57.408 128-128 128-128-57.408-128-128 57.408-128 128-128"  horiz-adv-x="1024" />

    
    <glyph glyph-name="icon-test3" unicode="&#58968;" d="M589.088 105.376L310.464 384l278.624 278.624 45.248-45.248L400.96 384l233.376-233.376z"  horiz-adv-x="1024" />

    
    <glyph glyph-name="lingshouguanli" unicode="&#58916;" d="M868 604.3H156.6c-11 0-20 9-20 20v61.3c0 44.2 35.8 80 80 80H808c44.2 0 80-35.8 80-80v-61.3c0-11-9-20-20-20zM264.8 320c-63.6 0-115.1 51.5-115.1 115.1V564.6c0 9.9 8 18 18 18H362c9.9 0 18-8 18-18V435c-0.1-63.5-51.6-115-115.2-115zM512.8 319.6c-63.6 0-115.1 51.5-115.1 115.1V564.2c0 9.9 8 18 18 18h194.2c9.9 0 18-8 18-18v-129.5c0-63.6-51.5-115.1-115.1-115.1zM761.4 320.1c-63.6 0-115.1 51.5-115.1 115.1V564.7c0 9.9 8 18 18 18h194.2c9.9 0 18-8 18-18v-129.5c0-63.6-51.5-115.1-115.1-115.1zM764.5 283.8c-69.4 0-125.7 56.3-125.7 125.7v-0.5c0-69.4-56.3-125.7-125.7-125.7S387.4 339.6 387.4 409v0.4c0-69.4-56.3-125.7-125.7-125.7-40.4 0-76.3 19-99.3 48.6v-297.9c0-16.6 20-30.1 44.7-30.1H489c12.6 0 22.9 6.9 22.9 15.4v16.9c0 8.1-9.8 14.7-21.9 14.7h-94.7c-12.6 0-22.9 6.9-22.9 15.4v63.1c0 8.5 10.2 15.4 22.9 15.4H630c12.6 0 22.9-6.9 22.9-15.4v-78.5h-1.4v-31.6c0-8.5 10.2-15.4 22.9-15.4H819c24.7 0 44.7 13.5 44.7 30.1V332.3c-23-29.5-58.9-48.5-99.2-48.5z"  horiz-adv-x="1024" />

    
    <glyph glyph-name="caigouguanli" unicode="&#58917;" d="M815.6 768H208c-44.2 0-80-35.8-80-80v-607.6c0-44.2 35.8-80 80-80h607.6c44.2 0 80 35.8 80 80V688c0 44.2-35.8 80-80 80z m-538.7-10h470.5c14.8 0 24.8-10.8 19.3-20.7l-49.3-87.9c-3.2-5.7-10.8-9.4-19.3-9.4H326.6c-8.5 0-16.1 3.7-19.3 9.3l-49.7 87.9c-5.6 10 4.5 20.8 19.3 20.8z m329.8-599.8c0-16.6-13.4-30-30-30H253.5c-16.6 0-30 13.4-30 30v4.7c0 16.6 13.4 30 30 30h323.3c16.6 0 30-13.4 30-30v-4.7z m0 160.8c0-16.6-13.4-30-30-30H253.5c-16.6 0-30 13.4-30 30v4.7c0 16.6 13.4 30 30 30h323.3c16.6 0 30-13.4 30-30v-4.7z m0 158.8c0-16.6-13.4-30-30-30H253.5c-16.6 0-30 13.4-30 30v4.7c0 16.6 13.4 30 30 30h323.3c16.6 0 30-13.4 30-30v-4.7zM797 219l-47.8-82.8c-4.4-7.7-14.2-10.3-21.9-5.9-0.5 0.3-1 0.6-1.5 1l-27.5 15.9c-7.7 4.4-10.3 14.2-5.9 21.9 4.4 7.7 14.2 10.3 21.9 5.9l15.2-8.8 39.8 68.9c4.4 7.7 14.2 10.3 21.9 5.9 7.6-4.5 10.3-14.3 5.8-22z m0 160.8L749.2 297c-4.4-7.7-14.2-10.3-21.9-5.9-0.5 0.3-1 0.6-1.5 1L698.4 308c-7.7 4.4-10.3 14.2-5.9 21.9 4.4 7.7 14.2 10.3 21.9 5.9l15.2-8.8 39.8 68.9c4.4 7.7 14.2 10.3 21.9 5.9 7.5-4.6 10.2-14.3 5.7-22z m0 158.8l-47.8-82.8c-4.4-7.7-14.2-10.3-21.9-5.9-0.5 0.3-1 0.6-1.5 1l-27.5 15.9c-7.7 4.4-10.3 14.2-5.9 21.9 4.4 7.7 14.2 10.3 21.9 5.9l15.2-8.8 39.8 68.9c4.4 7.7 14.2 10.3 21.9 5.9 7.6-4.6 10.3-14.3 5.8-22z"  horiz-adv-x="1024" />

    
    <glyph glyph-name="kucunguanli" unicode="&#58918;" d="M885.4 575.8H138.8c-11 0-14.9 13.5-5.4 18.7L512.9 797.8l377.9-203.4c9.5-5.1 5.6-18.6-5.4-18.6zM161 544.8v-497c0-44.2 33-80 73.7-80h560.2c40.7 0 73.7 35.8 73.7 80v497H161z m234.6-440.3c0-22.1-16.5-40-36.8-40h-43.6c-20.3 0-36.8 17.9-36.8 40v47.3c0 22.1 16.5 40 36.8 40h43.6c20.3 0 36.8-17.9 36.8-40v-47.3z m0.2 191.8c0-22.1-16.5-40-36.8-40h-43.6c-20.3 0-36.8 17.9-36.8 40v47.3c0 22.1 16.5 40 36.8 40H359c20.3 0 36.8-17.9 36.8-40v-47.3z m177.1-191.8c0-22.1-16.5-40-36.8-40h-43.6c-20.3 0-36.8 17.9-36.8 40v47.3c0 22.1 16.5 40 36.8 40H536c20.3 0 36.8-17.9 36.8-40v-47.3z m0.1 191.8c0-22.1-16.5-40-36.8-40h-43.6c-20.3 0-36.8 17.9-36.8 40v47.3c0 22.1 16.5 40 36.8 40h43.6c20.3 0 36.8-17.9 36.8-40v-47.3z m176.8-191.8c0-22.1-16.5-40-36.8-40h-43.6c-20.3 0-36.8 17.9-36.8 40v47.3c0 22.1 16.5 40 36.8 40H713c20.3 0 36.8-17.9 36.8-40v-47.3z"  horiz-adv-x="1024" />

    
    <glyph glyph-name="yingfuguanli" unicode="&#58919;" d="M856.2 544.8H681.5c-22.1 0-40-17.9-40-40v-132.4c0-11-9-20-20-20h-217c-11 0-20 9-20 20V504.8c0 22.1-17.9 40-40 40H168c-22.1 0-40-17.9-40-40v-517c0-11 9-20 20-20h728.1c11 0 20 9 20 20v517c0.1 22.1-17.8 40-39.9 40zM640.1 84.5c0-11-9-20-20-20H275.2c-11 0-20 9-20 20v23.6c0 11 9 20 20 20h344.9c11 0 20-9 20-20v-23.6z m0.5 127.9c0-11-9-20-20-20H275.7c-11 0-20 9-20 20V236c0 11 9 20 20 20h344.9c11 0 20-9 20-20v-23.6zM768 84.5c0-11-9-20-20-20h-23.6c-11 0-20 9-20 20v23.6c0 11 9 20 20 20H748c11 0 20-9 20-20v-23.6z m0.5 127.9c0-11-9-20-20-20h-23.6c-11 0-20 9-20 20V236c0 11 9 20 20 20h23.6c11 0 20-9 20-20v-23.6zM754.3 654.1l-242 112.4-242.9-112.3c-13.5-6.2-7.9-22.7 7.6-22.7h110.8v-229.3c0-9.5 8.7-17.1 19.5-17.1h211.4c10.8 0 19.5 7.7 19.5 17.1V631.4h108.6c15.4 0 20.9 16.5 7.5 22.7zM590.6 576c8.6 0 15.6-7.2 15.6-16s-7-16-15.6-16H529v-32.1h61.9c8.6 0 15.6-7.2 15.6-16s-7-16-15.6-16H529v-64.2c0-8.8-7-16-15.6-16s-15.6 7.2-15.6 16v64.2h-63.3c-8.6 0-15.6 7.2-15.6 16s7 16 15.6 16h63.3V544h-63.6c-8.6 0-15.6 7.2-15.6 16s7 16 15.6 16h45.9l-56 33.2c-7.5 4.4-10 14.2-5.7 21.9 4.3 7.7 13.8 10.3 21.3 5.9l72.5-42.9 72.5 42.9c7.5 4.4 17 1.8 21.3-5.9 4.3-7.7 1.8-17.4-5.7-21.9l-56-33.2h46.3z"  horiz-adv-x="1024" />

    
    <glyph glyph-name="huiyuanguanli" unicode="&#58920;" d="M868.8 511.2H156.7c-16.9 0-26.7-18.6-16.7-31.8l355.8-470.8c8.2-10.8 24.9-10.8 33.1 0l356.6 470.8c10 13.1 0.3 31.8-16.7 31.8zM697 380.2L538.8 173.3c-6.6-8.6-16.8-13.1-27.2-13-10.4-0.1-20.6 4.4-27.2 13L326.2 380.2c-10.8 14.1-7.5 33.9 7.4 44.2 14.9 10.3 35.7 7.1 46.5-7l131.5-172.1 131.5 172.1c10.8 14.1 31.6 17.3 46.5 7 14.9-10.3 18.2-30 7.4-44.2zM672.1 680.7h-16v-32.1h16c8.9 0 16 7.2 16 16 0.1 9-7.1 16.1-16 16.1zM894 541.1L788.5 745.9c-7 13.6-21.3 22.2-37 22.2H273.2c-15.7 0-30-8.6-37-22.1l-106-204.8c-6.9-13.3 3.1-29 18.5-29h726.7c15.4 0 25.4 15.6 18.6 28.9zM447.2 684.7L391 587.4c-1-1.8-2.6-3-4.4-3.6h-0.1c-0.2-0.1-0.4-0.1-0.6-0.2h-0.2c-0.2 0-0.3-0.1-0.5-0.1H383c-0.2 0-0.3 0.1-0.5 0.1h-0.2c-0.2 0-0.4 0.1-0.6 0.2h-0.1c-1.8 0.6-3.4 1.8-4.4 3.6L321 684.7c-2.2 3.8-0.9 8.7 2.9 10.9s8.7 0.9 10.9-2.9l49.3-85.4 49.3 85.4c2.2 3.8 7.1 5.1 10.9 2.9 3.8-2.2 5.1-7.1 2.9-10.9z m88.9-93.3c0-4.4-3.6-8-8-8s-8 3.6-8 8v97.4c0 4.4 3.6 8 8 8s8-3.6 8-8v-97.4z m168.1 73.3c0-17.7-14.4-32.1-32.1-32.1H656v-41.3c0-4.4-3.6-8-8-8s-8 3.6-8 8v97.5c0 4.4 3.6 8 8 8 0.5 0 1-0.1 1.5-0.1 0.6 0.1 1.1 0.1 1.7 0.1h20.9c17.7 0 32.1-14.4 32.1-32.1z"  horiz-adv-x="1024" />

    
    <glyph glyph-name="hetongguanli" unicode="&#58924;" d="M368.3 659.4H655c16.6 0 30 13.4 30 30v67.7c0 16.6-13.4 30-30 30H368.3c-16.6 0-30-13.4-30-30v-67.7c0-16.6 13.5-30 30-30zM736.8 155.7l3.3-8.8c1.1-3 5.1-5.1 9.7-5.1h6.7c4.6 0 8.6 2.1 9.7 5.1l3.3 8.7c18.3 6.6 31.4 24.2 31.4 44.8 0 26.3-21.3 47.6-47.6 47.6s-47.6-21.3-47.6-47.6c0-20.5 12.9-37.9 31.1-44.7zM812.3 84.8h-14.9c-0.1 0.4-0.2 0.9-0.4 1.3l-26.2 50.3c-1.6 3-7 5.1-13.2 5.1h-9c-6.2 0-11.7-2.1-13.2-5.1l-25.8-50.3c-0.2-0.4-0.3-0.9-0.4-1.3h-14.9c-2.8 0-5-2.2-5-5v-22c0-2.8 2.2-5 5-5h4.2c1.4-4.4 5.5-7.5 10.3-7.5h88.9c4.8 0 8.9 3.2 10.3 7.5h4.2c2.8 0 5 2.2 5 5v22c0.1 2.7-2.1 5-4.9 5zM865.6 768H733.3c-16.6 0-30-13.4-30-30v-68c0-16.6-13.4-30-30-30h-324c-16.6 0-30 13.4-30 30v68c0 16.6-13.4 30-30 30H158c-16.6 0-30-13.4-30-30v-707.6c0-16.6 13.4-30 30-30h707.6c16.6 0 30 13.4 30 30V738c0 16.5-13.4 30-30 30zM289 543.9c0 17.7 14.3 32 32 32h415.1c17.7 0 32-14.3 32-32s-14.3-32-32-32H321c-17.7 0-32 14.4-32 32z m-32.9-128c0 17.7 14.3 32 32 32h448c17.7 0 32-14.3 32-32s-14.3-32-32-32h-448c-17.7 0.1-32 14.4-32 32z m-15 117.8l3.1-18.9c0.3-2-1.6-3.5-3.3-2.5l-16.1 8.9c-0.7 0.4-1.5 0.4-2.1 0l-16.1-8.9c-1.7-0.9-3.6 0.6-3.3 2.5l3.1 18.9c0.1 0.8-0.1 1.6-0.7 2.1l-13.1 13.4c-1.4 1.4-0.6 3.8 1.3 4.1l18 2.8c0.7 0.1 1.4 0.6 1.7 1.3l8.1 17.2c0.8 1.8 3.2 1.8 4.1 0l8.1-17.2c0.3-0.7 1-1.2 1.7-1.3l18-2.8c1.9-0.3 2.6-2.7 1.3-4.1l-13.1-13.4c-0.6-0.6-0.8-1.4-0.7-2.1zM513 159.5c0-17.7-14.3-32-32-32H287.3c-17.7 0-32 14.3-32 32s14.3 32 32 32H481c17.7 0 32-14.3 32-32z m-224.8 95.3c-17.7 0-32 14.3-32 32s14.3 32 32 32h319.9c17.7 0 32-14.3 32-32s-14.3-32-32-32H288.2z m592.3-111.2c0-70.3-57-127.2-127.2-127.2-70.3 0-127.2 57-127.2 127.2 0 70.3 57 127.2 127.2 127.2 70.3 0 127.2-57 127.2-127.2z"  horiz-adv-x="1024" />

    
    <glyph glyph-name="shoufeiguanli" unicode="&#58925;" d="M167.5 640h452.6c11 0 20 9 20 20v88.3c0 11-9 20-20 20H167.5c-22.1 0-40-17.9-40-40V680c0-22 17.9-40 40-40zM351.3 334.5c-17.7 0-32-14.3-32-32s14.3-32 32-32 32 14.3 32 32-14.4 32-32 32zM819.1 365.9h77.1V565.2c0 22.1-17.9 40-40 40H168c-22.1 0-40-17.9-40-40v-525.4c0-22.1 17.9-40 40-40h688.1c22.1 0 40 17.9 40 40V239.2H819c-24.5-56.9-81.1-96.7-147-96.7s-122.4 39.8-147 96.7H298c-23.3 0-42.1 18.9-42.1 42.1v42.5c0 23.3 18.9 42.1 42.1 42.1h227c24.5 56.9 81.1 96.7 147 96.7 66 0 122.6-39.8 147.1-96.7zM768 398.3c-4.3 7.7-13.8 10.3-21.3 5.9l-72.5-42.9-72.5 42.9c-7.5 4.4-17 1.8-21.3-5.9-4.3-7.7-1.8-17.5 5.7-21.9l56-33.2h-45.9c-8.6 0-15.6-7.2-15.6-16s7-16 15.6-16h63.6v-32.1h-63.3c-8.6 0-15.6-7.2-15.6-16s7-16 15.6-16h63.3v-64.2c0-8.8 7-16 15.6-16s15.6 7.2 15.6 16v64.2h61.9c8.6 0 15.6 7.2 15.6 16s-7 16-15.6 16H691v32.1h61.6c8.6 0 15.6 7.2 15.6 16s-7 16-15.6 16h-46.3l56 33.2c7.5 4.5 10 14.2 5.7 21.9z"  horiz-adv-x="1024" />

    
    <glyph glyph-name="yingyeshouru" unicode="&#58926;" d="M160 448.2c17.7 0 32 14.3 32 32s-14.3 32-32 32-32-14.3-32-32 14.4-32 32-32zM511.3 703.3c17.7 0 32 14.3 32 32s-14.3 32-32 32-32-14.3-32-32 14.4-32 32-32zM832.2 479.8c0-17.7 14.3-32 32-32s32 14.3 32 32-14.3 32-32 32-32-14.3-32-32zM865.3 65.4c-17.7 0-32-14.3-32-32s14.3-32 32-32 32 14.3 32 32c0 17.6-14.4 32-32 32zM160 64.7c-17.7 0-32-14.3-32-32s14.3-32 32-32 32 14.3 32 32-14.3 32-32 32zM256.3 351c-17.3 0-31.3-14-31.3-31.3v-132c0-17.3 14-31.3 31.3-31.3s31.3 14 31.3 31.3v132c0.1 17.3-14 31.3-31.3 31.3zM422.9 351.2h-32v-63.9h32c17.7 0 32 14.3 32 32-0.1 17.6-14.4 31.9-32 31.9zM861.8 78.5c13.5 0 25.7-5.6 34.4-14.6v387c-8.8-9.8-21.5-16-35.7-16-26.4 0-47.8 21.4-47.8 47.8 0 23.3 16.7 42.7 38.8 47l-294.6 221c1.5-4.6 2.3-9.6 2.3-14.7 0-20.3-12.6-37.6-30.5-44.6l238.9-179.3H259.2l237.6 178.3c-19.3 6.2-33.3 24.2-33.3 45.6 0 3.7 0.4 7.3 1.2 10.8L175.4 529.7c22.1-4.2 38.8-23.6 38.8-47 0-26.4-21.4-47.8-47.8-47.8-15.7 0-29.6 7.5-38.3 19.2v-394.8c8.7 11.7 22.6 19.2 38.3 19.2 26.4 0 47.8-21.4 47.8-47.8 0-11.5-4.1-22.1-10.9-30.3h621.5c-6.8 8.3-10.9 18.8-10.9 30.3 0.1 26.4 21.5 47.8 47.9 47.8zM319.3 191.8c0-35.2-28.5-63.6-63.6-63.6-35.2 0-63.6 28.5-63.6 63.6V319.1c0 35.2 28.5 63.6 63.6 63.6 35.2 0 63.6-28.5 63.6-63.6v-127.3z m166.9 126.9c0-35-28.4-63.4-63.4-63.4h-32v-127.8h-31.4V382.1h63.4c35.1 0 63.4-28.4 63.4-63.4z m81.4-48.3h63.9c8.7 0 15.7-7 15.7-15.7s-7-15.7-15.7-15.7h-63.9c-8.7 0-15.7-7-15.7-15.7v-49.1c0-8.7 7-15.7 15.7-15.7h63.9c8.7 0 15.7-7 15.7-15.7s-7-15.7-15.7-15.7h-111V382.5h31.4v-0.2h79.6c8.7 0 15.7-7 15.7-15.7s-7-15.7-15.7-15.7h-63.9c-8.7 0-15.7-7-15.7-15.7v-49.1c0-8.7 7-15.7 15.7-15.7zM811 128c-6.5 0-12.4 4.1-14.7 10.2l-29.7 79c-6.2 16.4-30.4 12-30.4-5.5v-68.9c0-8.7-7-15.7-15.7-15.7s-15.7 7-15.7 15.7V365.9c0 8.7 7 15.7 15.7 15.7h4.8c6.5 0 12.4-4.1 14.7-10.2l29.7-79c6.2-16.4 30.4-12 30.4 5.5v68.9c0 8.7 7 15.7 15.7 15.7s15.7-7 15.7-15.7v-223.2c0-8.7-7-15.7-15.7-15.7H811z"  horiz-adv-x="1024" />

    
    <glyph glyph-name="wanglaixianjin" unicode="&#58927;" d="M448.1 475.8v36.4H118c-11 0-20-9-20-20v-411.8c0-44.2 35.8-80 80-80h224.8c44.2 0 80 35.8 80 80v69.9l-112 37.4c-8.2 2.7-13.7 10.4-13.7 19v35.1c0 8.6 5.5 16.2 13.7 19l112 37.3V459.6l-8.4-2.8c-12.9-4.3-26.3 5.3-26.3 19z m-125.9-203c8.6 0 15.6-7.2 15.6-16s-7-16-15.6-16h-61.6v-32.1h61.9c8.6 0 15.6-7.2 15.6-16s-7-16-15.6-16h-61.9v-64.2c0-8.8-7-16-15.6-16s-15.6 7.2-15.6 16v64.2h-63.3c-8.6 0-15.6 7.2-15.6 16s7 16 15.6 16h63.3v32.1h-63.6c-8.6 0-15.6 7.2-15.6 16s7 16 15.6 16h45.9l-56 33.2c-7.5 4.4-10 14.2-5.7 21.9 4.3 7.7 13.8 10.3 21.3 5.9l72.5-42.9 72.5 42.9c7.5 4.4 17 1.8 21.3-5.9s1.8-17.4-5.7-21.9l-56-33.2h46.3zM402.8 768H178c-44.2 0-80-35.8-80-80v-92.2c0-11 9-20 20-20h330.1v36.5c0 13.7 13.4 23.3 26.3 19l8.4-2.8V688c0 44.2-35.8 80-80 80zM816.2 768H591.3c-44.2 0-80-35.8-80-80v-69l115.1-38.4c8.2-2.7 13.7-10.4 13.7-19v-35.1c0-8.6-5.5-16.2-13.7-19l-115.1-38.4v-161.7l11.6 3.9c13 4.3 26.3-5.3 26.3-19v-36.2h326.9c11 0 20 9 20 20V688c0.1 44.2-35.7 80-79.9 80z m10.9-177.2c8.6 0 15.6-7.2 15.6-16s-7-16-15.6-16h-61.6v-32.1h61.9c8.6 0 15.6-7.2 15.6-16s-7-16-15.6-16h-61.9v-64.2c0-8.8-7-16-15.6-16s-15.6 7.2-15.6 16v64.2H671c-8.6 0-15.6 7.2-15.6 16s7 16 15.6 16h63.3v32.1h-63.6c-8.6 0-15.6 7.2-15.6 16s7 16 15.6 16h45.9l-56 33.2c-7.5 4.4-10 14.2-5.7 21.9 4.3 7.7 13.8 10.3 21.3 5.9l72.5-42.9 72.5 42.9c7.5 4.4 17 1.8 21.3-5.9s1.8-17.4-5.7-21.9l-56-33.2h46.3zM876.2 192.6h-327v-36.8c0-13.7-13.4-23.3-26.3-19l-11.6 3.9v-60.3c0-44.2 35.8-80 80-80h224.8c44.2 0 80 35.8 80 80v92.2c0.1 11.1-8.9 20-19.9 20z"  horiz-adv-x="1024" />

    
    <glyph glyph-name="fapiaoguanli" unicode="&#58929;" d="M878.3 534.7l-24-11.9c-8.9-4.4-8.9-17.2 0-21.6l24-11.9c8-4 17.4 1.9 17.4 10.8v23.8c-0.1 9-9.4 14.8-17.4 10.8zM878.3 279.1L853.8 267c-8.9-4.4-8.9-17.2 0-21.6l24.5-12.1c8-4 17.4 1.9 17.4 10.8v24.3c-0.1 8.8-9.4 14.7-17.4 10.7zM867.3 721.9l-6.8-3.4c-13.1-6.5-28.4 3-28.4 17.6v12.2c0 10.8-8.8 19.6-19.6 19.6H117.6c-10.8 0-19.6-8.8-19.6-19.6V536c79 0 143-64 143-143S177 250 98 250v-230c0-10.8 8.8-19.6 19.6-19.6H812c10.8 0 19.6 8.8 19.6 19.6v11.9c0 14.6 15.3 24.1 28.4 17.6l7.3-3.6c13.1-6.5 28.4 3 28.4 17.6v1c0 14.6-15.3 24.1-28.4 17.6l-7-3.5c-13.1-6.5-28.4 3-28.4 17.6v0.2c0 14.6 15.3 24.1 28.4 17.6l7-3.5c13.1-6.5 28.4 3 28.4 17.6v64.7c0 14.6-15.3 24.1-28.4 17.6l-7.1-3.5c-13.1-6.5-28.4 3-28.4 17.6v31.8h0.1v31.6c0 14.6 15.3 24.1 28.4 17.6l7.1-3.5c13.1-6.5 28.4 3 28.4 17.6v0.8c0 14.6-15.3 24.1-28.4 17.6l-6.8-3.4c-13.1-6.5-28.4 3-28.4 17.6v0.2c0 14.6 15.3 24.1 28.4 17.6l6.8-3.4c13.1-6.5 28.4 3 28.4 17.6v0.2c0 14.6-15.3 24.1-28.4 17.6l-7.2-3.6c-13.1-6.5-28.4 3-28.4 17.6v0.2c0 14.6 15.3 24.1 28.4 17.6l7.2-3.6c13.1-6.5 28.4 3 28.4 17.6v0.9c0 14.6-15.3 24.1-28.4 17.6l-6.9-3.4c-13.1-6.5-28.4 3-28.4 17.6v31.8h0.1v31.3c0 14.6 15.3 24.1 28.4 17.6l6.9-3.4c13.1-6.5 28.4 3 28.4 17.6v0.6c0 14.6-15.3 24.1-28.4 17.6l-6.6-3.3c-13.1-6.5-28.4 3-28.4 17.6v0.2c0 14.6 15.3 24.1 28.4 17.6l6.6-3.3c13.1-6.5 28.4 3 28.4 17.6 0 14.6-15.3 24.1-28.4 17.6l-7-3.5c-13.1-6.5-28.4 3-28.4 17.6v0.2c0 14.6 15.3 24.1 28.4 17.6l7-3.5c13.1-6.5 28.4 3 28.4 17.6v0.8c-0.3 14.5-15.6 24-28.6 17.5z m-611.7-80.8c0 17.7 14.3 32 32 32h383.2c17.7 0 32-14.3 32-32s-14.3-32-32-32H287.7c-17.7-0.1-32.1 14.3-32.1 32z m448.1-128.2c0-17.7-14.3-32-32-32H288.5c-17.7 0-32 14.3-32 32s14.3 32 32 32h383.2c17.7 0 32-14.3 32-32zM512.6 129.1c0-17.7-14.3-32-32-32H288.5c-17.7 0-32 14.3-32 32s14.3 32 32 32h192.1c17.7 0 32-14.3 32-32z m0 128.1c0-17.7-14.3-32-32-32H288.5c-17.7 0-32 14.3-32 32s14.3 32 32 32h192.1c17.7 0 32-14.3 32-32z m31 127.8c0-17.7-14.3-32-32-32H288.5c-17.7 0-32 14.3-32 32s14.3 32 32 32h223.1c17.7 0 32-14.3 32-32z m206.8-136.6c8.6 0 15.6-7.2 15.6-16s-7-16-15.6-16h-61.6v-32.1h61.9c8.6 0 15.6-7.2 15.6-16s-7-16-15.6-16h-61.9v-64.2c0-8.8-7-16-15.6-16s-15.6 7.2-15.6 16v64.2h-63.3c-8.6 0-15.6 7.2-15.6 16s7 16 15.6 16h63.3v32.1H594c-8.6 0-15.6 7.2-15.6 16s7 16 15.6 16h45.9l-56 33.2c-7.5 4.4-10 14.2-5.7 21.9 4.3 7.7 13.8 10.3 21.3 5.9l72.5-42.9 72.5 42.9c7.5 4.4 17 1.8 21.3-5.9s1.8-17.4-5.7-21.9l-56-33.2h46.3z m109.5-70.6l0.2-0.1c14.6-7.2 14.6-28 0-35.2l-0.2-0.1c-13.1-6.5-28.4 3-28.4 17.6v0.2c0 14.5 15.4 24 28.4 17.6z"  horiz-adv-x="1024" />

    
    <glyph glyph-name="zonghechaxun" unicode="&#58930;" d="M414.4 768H208c-44.2 0-80-35.8-80-80v-207.2c0-44.2 35.8-80 80-80h206.3c44.2 0 80 35.8 80 80V688c0.1 44.2-35.8 80-79.9 80zM414.4 367.6H208c-44.2 0-80-35.8-80-80v-207.2c0-44.2 35.8-80 80-80h206.3c44.2 0 80 35.8 80 80V287.6c0.1 44.2-35.8 80-79.9 80zM816.2 367.6H609.8c-44.2 0-80-35.8-80-80v-207.2c0-44.2 35.8-80 80-80h206.3c44.2 0 80 35.8 80 80V287.6c0.1 44.2-35.7 80-79.9 80zM638.9 512.2c32.2 0 61.5 11.9 84 31.5L867 424.8c6.8-5.6 16.9-4.7 22.5 2.2l5.1 6.2c5.6 6.8 4.7 16.9-2.2 22.5L748.5 574.4c11.4 19.1 18 41.5 18 65.4v0.6c0 70.5-57.1 127.6-127.6 127.6s-127.6-57.1-127.6-127.6v-0.6c0-70.5 57.2-127.6 127.6-127.6z m2.9 212.5c48.3 0 87.5-39.2 87.5-87.5 0-19.1-6.1-36.7-16.5-51.1-0.6-0.5-1.1-1-1.6-1.7l-5.1-6.2c-0.4-0.5-0.8-1-1.1-1.6-15.9-16.6-38.3-27-63.2-27-48.3 0-87.5 39.2-87.5 87.5s39.2 87.6 87.5 87.6z"  horiz-adv-x="1024" />

    
    <glyph glyph-name="pingzhengzhongxin" unicode="&#58932;" d="M153.6 607.2H869c14.4 0 26.1 8.8 26.1 19.7v34.3c0 23.4-25.1 42.3-56.1 42.3H719c-8.9 0-16.1-5.4-16.1-12.1 0-6.7-7.2-12.1-16.1-12.1h-351c-8.9 0-16.1 5.4-16.1 12.1 0 6.7-7.2 12.1-16.1 12.1h-120c-31 0-56.1-18.9-56.1-42.3v-34.3c0-10.9 11.7-19.7 26.1-19.7zM866 427.4c17.3 4.8 29.2 20.6 29.2 38.5v54c0 22.1-17.9 40-40 40H167.5c-22.1 0-40-17.9-40-40v-62.6c0-15.6 9-30.1 23.2-36.5 44.4-20.1 75.2-64.8 75.2-116.7 0-51.9-30.8-96.6-75.2-116.7-14.2-6.5-23.2-20.9-23.2-36.5v-62.8c0-22.1 17.9-40 40-40h687.6c22.1 0 40 17.9 40 40v54.1c0 17.9-11.9 33.7-29.2 38.5-54 15.1-93.5 64.6-93.5 123.4 0 58.7 39.6 108.3 93.6 123.3z m-435.5-67c8.6 0 15.6-7.2 15.6-16s-7-16-15.6-16h-61.6v-32.1h61.9c8.6 0 15.6-7.2 15.6-16s-7-16-15.6-16h-61.9v-64.2c0-8.8-7-16-15.6-16s-15.6 7.2-15.6 16v64.2h-63.3c-8.6 0-15.6 7.2-15.6 16s7 16 15.6 16h63.3v32.1h-63.6c-8.6 0-15.6 7.2-15.6 16s7 16 15.6 16H320l-56 33.2c-7.5 4.4-10 14.2-5.7 21.9 4.3 7.7 13.8 10.3 21.3 5.9l72.5-42.9 72.5 42.9c7.5 4.4 17 1.8 21.3-5.9s1.8-17.4-5.7-21.9l-56-33.2h46.3z m306-120.9c0-17.3-14.1-31.4-31.4-31.4h-194c-17.3 0-31.4 14.1-31.4 31.4 0 17.3 14.1 31.4 31.4 31.4h194c17.4 0.1 31.4-14 31.4-31.4z m0 128.2c0-17.3-14.1-31.4-31.4-31.4h-194c-17.3 0-31.4 14.1-31.4 31.4 0 17.3 14.1 31.4 31.4 31.4h194c17.4 0 31.4-14 31.4-31.4z"  horiz-adv-x="1024" />

    
    <glyph glyph-name="shouye" unicode="&#58935;" d="M816.7 494.3H206.5c-5.9 0-10.8-4.3-10.8-9.6v-446.2c0-21.3 19.3-38.6 43.1-38.6h113.4c11.9 0 21.5 8.6 21.5 19.3V227.7c0 10.7 9.6 19.3 21.5 19.3h232.2c11.9 0 21.5-8.6 21.5-19.3v-208.6c0-10.7 9.6-19.3 21.5-19.3h113.9c23.8 0 43.1 17.3 43.1 38.6V484.6c0.1 5.3-4.7 9.7-10.7 9.7zM206.5 505.4h610.2c10.9 0 14.9 12.8 5.6 17.9L512.7 691.1 201 523.3c-9.4-5.1-5.4-17.9 5.5-17.9zM879.3 579.1L529.9 763.7c-5.4 2.9-11.4 4.2-17.3 4.3-6.2 0.1-12.5-1.2-18.2-4.3L144.9 579.1c-16.3-8.6-21.8-27.5-12.1-42.1 9.6-14.6 30.7-19.5 47-10.9l332.3 175.6 332.3-175.6c16.3-8.6 37.4-3.8 47 10.9 9.6 14.6 4.2 33.5-12.1 42.1z"  horiz-adv-x="1024" />

    
    <glyph glyph-name="zhankai" unicode="&#58936;" d="M832.6 768H192.4c-35.3 0-64-28.6-64-64 0-35.3 28.6-64 64-64h640.2c35.3 0 64 28.6 64 64 0 35.3-28.6 64-64 64zM192.5 426.8h289.2c35.3 0 64 28.7 64 64s-28.7 64-64 64H192.5c-35.3 0-64-28.7-64-64 0-35.4 28.6-64 64-64zM128.5 277.6c0-35.3 28.7-64 64-64h289.2c35.3 0 64 28.7 64 64s-28.7 64-64 64H192.5c-35.4 0-64-28.7-64-64zM832.6 128.3H192.4c-35.3 0-64-28.6-64-64 0-35.3 28.6-64 64-64h640.2c35.3 0 64 28.6 64 64s-28.6 64-64 64zM878.7 240.4c8.5-3.4 17.7 2.9 17.7 12V534.3c0 9.1-9.2 15.4-17.7 12l-272.6-109c-18-7.2-29.7-24.6-29.7-43.9 0-19.3 11.8-36.7 29.7-43.9l272.6-109.1z"  horiz-adv-x="1024" />

    
    <glyph glyph-name="xiaoxitishi" unicode="&#58938;" d="M820.3 120.6l-35.7 49c-6 8.2-14 14.4-23.1 18.2l-36.2 325.5c-9.6 86.6-69.9 156.4-149.3 181.2v39.3c0 35.3-28.6 64-64 64-35.3 0-64-28.6-64-64v-39.3c-79.4-24.8-139.6-94.6-149.2-181.1l-36.2-325.5c-9.1-3.8-17.1-10.1-23.1-18.2l-35.7-49c-16.5-22.6-1.5-55.1 26.5-56.2h158.6c14.2-55.1 64.2-95.9 123.8-95.9h0.4c59.6 0 109.6 40.7 123.8 95.9H793.7c28.1 0.9 43.1 33.4 26.6 56.1z"  horiz-adv-x="1024" />

    
    <glyph glyph-name="zhanghao" unicode="&#58939;" d="M513 798.5c-229.2 0-415-185.8-415-415s185.8-415 415-415 415 185.8 415 415-185.8 415-415 415zM385.1 607.9c0 70.6 57.3 127.9 127.9 127.9 70.6 0 127.9-57.3 127.9-127.9 0-70.6-57.3-127.9-127.9-127.9-70.6 0-127.9 57.3-127.9 127.9z m323.1-543.3h-393c-17.8 0-31.3 22.2-28.4 46.5l10.1 84.3C314.4 341 405.3 447.7 511.7 447.7S709 341 726.5 195.4l10.1-84.3c2.9-24.3-10.6-46.5-28.4-46.5z"  horiz-adv-x="1024" />

    
    <glyph glyph-name="zhuxiao" unicode="&#58940;" d="M513 798.5c-229.2 0-415-185.8-415-415s185.8-415 415-415 415 185.8 415 415-185.8 415-415 415z m319.2-414.3c0-176.7-143.3-320-320-320h-0.2c-176.7 0-320 143.3-320 320s143.3 320 320 320h0.2c176.7 0 320-143.2 320-320zM611.7 516.7v-161.2c0-54.1-43.9-98-98-98s-98 43.9-98 98V519.7c-57.6-33.1-96.3-95.2-96.3-166.4 0-105.9 85.9-191.8 191.8-191.8S703 247.4 703 353.3c0 69.1-36.5 129.6-91.3 163.4zM512.1 297.7c35.4 0 64 28.7 64 64v196c0 35.4-28.7 64-64 64-35.4 0-64-28.7-64-64v-196c0-35.4 28.6-64 64-64z"  horiz-adv-x="1024" />

    
    <glyph glyph-name="guanbi" unicode="&#58942;" d="M240.4 655.6c-149.9-149.9-149.9-392.9 0-542.8 149.9-149.9 392.9-149.9 542.8 0 149.9 149.9 149.9 392.9 0 542.8-149.9 149.8-392.9 149.8-542.8 0z m497.8-45.1c18.4-18.4 18.4-48.2 0-66.6L578.5 384.2l159.7-159.7c18.4-18.4 18.4-48.2 0-66.6-18.4-18.4-48.2-18.4-66.6 0L511.8 317.5 352.1 157.8c-18.4-18.4-48.2-18.4-66.6 0-18.4 18.4-18.4 48.2 0 66.6l159.7 159.7-159.7 159.8c-18.4 18.4-18.4 48.2 0 66.6 18.4 18.4 48.2 18.4 66.6 0l159.7-159.7 159.7 159.7c18.4 18.4 48.3 18.4 66.7 0z"  horiz-adv-x="1024" />

    


  </font>
</defs>
</svg>
